<svg viewBox="0 0 480 200" xmlns="http://www.w3.org/2000/svg" width="480" height="200">
  <defs>
    <linearGradient id="p-bg" x1="0%" y1="0%" x2="100%" y2="100%">
      <stop offset="0%" stop-color="#042f2e"/>
      <stop offset="100%" stop-color="#0f766e"/>
    </linearGradient>
    <linearGradient id="p-wave" x1="0%" y1="0%" x2="100%" y2="0%">
      <stop offset="0%" stop-color="#2dd4bf" stop-opacity="0"/>
      <stop offset="30%" stop-color="#2dd4bf" stop-opacity="0.9"/>
      <stop offset="70%" stop-color="#5eead4" stop-opacity="0.7"/>
      <stop offset="100%" stop-color="#2dd4bf" stop-opacity="0"/>
    </linearGradient>
    <filter id="p-glow">
      <feGaussianBlur stdDeviation="2" result="blur"/>
      <feMerge><feMergeNode in="blur"/><feMergeNode in="SourceGraphic"/></feMerge>
    </filter>
  </defs>
  <rect width="480" height="200" fill="url(#p-bg)"/>
  <path d="M0,100 C30,100 30,60 60,60 S90,100 120,100 S150,60 180,60 S210,100 240,100 S270,60 300,60 S330,100 360,100 S390,60 420,60 S450,100 480,100"
        fill="none" stroke="#14b8a6" stroke-opacity="0.10" stroke-width="1"/>
  <path d="M0,140 C30,140 30,100 60,100 S90,140 120,140 S150,100 180,100 S210,140 240,140 S270,100 300,100 S330,140 360,140 S390,100 420,100 S450,140 480,140"
        fill="none" stroke="#14b8a6" stroke-opacity="0.06" stroke-width="1"/>
  <path d="M0,100 C30,100 30,60 60,60 S90,100 120,100 S150,60 180,60 S210,100 240,100 S270,60 300,60 S330,100 360,100 S390,60 420,60 S450,100 480,100"
        fill="none" stroke="url(#p-wave)" stroke-width="2.5" filter="url(#p-glow)"/>
  <path d="M200,100 L220,45 L230,125 L240,100"
        fill="none" stroke="#5eead4" stroke-width="2" filter="url(#p-glow)" stroke-opacity="0.95"/>
  <line x1="0" y1="40"  x2="480" y2="40"  stroke="#2dd4bf" stroke-opacity="0.06" stroke-width="1"/>
  <line x1="0" y1="80"  x2="480" y2="80"  stroke="#2dd4bf" stroke-opacity="0.06" stroke-width="1"/>
  <line x1="0" y1="120" x2="480" y2="120" stroke="#2dd4bf" stroke-opacity="0.06" stroke-width="1"/>
  <line x1="0" y1="160" x2="480" y2="160" stroke="#2dd4bf" stroke-opacity="0.06" stroke-width="1"/>
</svg>
