<svg viewBox="0 0 480 200" xmlns="http://www.w3.org/2000/svg" width="480" height="200">
  <defs>
    <linearGradient id="h-bg" x1="0%" y1="0%" x2="100%" y2="100%">
      <stop offset="0%" stop-color="#042f2e"/>
      <stop offset="100%" stop-color="#0f766e"/>
    </linearGradient>
    <radialGradient id="h-glow" cx="56%" cy="48%" r="40%">
      <stop offset="0%" stop-color="#14b8a6" stop-opacity="0.2"/>
      <stop offset="100%" stop-color="#042f2e" stop-opacity="0"/>
    </radialGradient>
    <filter id="h-blur">
      <feGaussianBlur stdDeviation="4" result="blur"/>
      <feMerge><feMergeNode in="blur"/><feMergeNode in="SourceGraphic"/></feMerge>
    </filter>
  </defs>
  <rect width="480" height="200" fill="url(#h-bg)"/>
  <!-- row 0 -->
  <polygon points="37.4,13.0 18.7,27.0 18.7,55.0 37.4,69.0 56.1,55.0 56.1,27.0"  fill="none"    stroke="#2dd4bf" stroke-width="0.6" stroke-opacity="0.12"/>
  <polygon points="85.9,13.0 67.2,27.0 67.2,55.0 85.9,69.0 104.6,55.0 104.6,27.0" fill="none"    stroke="#2dd4bf" stroke-width="0.6" stroke-opacity="0.12"/>
  <polygon points="134.4,13.0 115.7,27.0 115.7,55.0 134.4,69.0 153.1,55.0 153.1,27.0" fill="none" stroke="#2dd4bf" stroke-width="0.6" stroke-opacity="0.12"/>
  <polygon points="182.9,13.0 164.2,27.0 164.2,55.0 182.9,69.0 201.6,55.0 201.6,27.0" fill="none" stroke="#2dd4bf" stroke-width="0.6" stroke-opacity="0.12"/>
  <polygon points="231.4,13.0 212.7,27.0 212.7,55.0 231.4,69.0 250.1,55.0 250.1,27.0" fill="none" stroke="#2dd4bf" stroke-width="0.6" stroke-opacity="0.12"/>
  <polygon points="279.9,13.0 261.2,27.0 261.2,55.0 279.9,69.0 298.6,55.0 298.6,27.0" fill="none" stroke="#2dd4bf" stroke-width="0.6" stroke-opacity="0.12"/>
  <polygon points="328.4,13.0 309.7,27.0 309.7,55.0 328.4,69.0 347.1,55.0 347.1,27.0" fill="none" stroke="#2dd4bf" stroke-width="0.6" stroke-opacity="0.12"/>
  <polygon points="376.9,13.0 358.2,27.0 358.2,55.0 376.9,69.0 395.6,55.0 395.6,27.0" fill="none" stroke="#2dd4bf" stroke-width="0.6" stroke-opacity="0.12"/>
  <polygon points="425.4,13.0 406.7,27.0 406.7,55.0 425.4,69.0 444.1,55.0 444.1,27.0" fill="none" stroke="#2dd4bf" stroke-width="0.6" stroke-opacity="0.12"/>
  <!-- row 1 (offset) -->
  <polygon points="13.0,55.0 -5.7,69.0 -5.7,97.0 13.0,111.0 31.7,97.0 31.7,69.0"   fill="none"    stroke="#2dd4bf" stroke-width="0.6" stroke-opacity="0.12"/>
  <polygon points="61.5,55.0 42.8,69.0 42.8,97.0 61.5,111.0 80.2,97.0 80.2,69.0"   fill="none"    stroke="#2dd4bf" stroke-width="0.6" stroke-opacity="0.12"/>
  <polygon points="110.0,55.0 91.3,69.0 91.3,97.0 110.0,111.0 128.7,97.0 128.7,69.0" fill="none"  stroke="#2dd4bf" stroke-width="0.6" stroke-opacity="0.12"/>
  <polygon points="158.5,55.0 139.8,69.0 139.8,97.0 158.5,111.0 177.2,97.0 177.2,69.0" fill="none" stroke="#2dd4bf" stroke-width="0.6" stroke-opacity="0.12"/>
  <polygon points="207.0,55.0 188.3,69.0 188.3,97.0 207.0,111.0 225.7,97.0 225.7,69.0" fill="none" stroke="#2dd4bf" stroke-width="0.6" stroke-opacity="0.12"/>
  <polygon points="255.5,55.0 236.8,69.0 236.8,97.0 255.5,111.0 274.2,97.0 274.2,69.0" fill="#0a4f4a" stroke="#2dd4bf" stroke-width="0.6" stroke-opacity="0.35"/>
  <polygon points="304.0,55.0 285.3,69.0 285.3,97.0 304.0,111.0 322.7,97.0 322.7,69.0" fill="#0d9488" stroke="#2dd4bf" stroke-width="0.6" stroke-opacity="0.70"/>
  <polygon points="352.5,55.0 333.8,69.0 333.8,97.0 352.5,111.0 371.2,97.0 371.2,69.0" fill="#0a4f4a" stroke="#2dd4bf" stroke-width="0.6" stroke-opacity="0.35"/>
  <polygon points="401.0,55.0 382.3,69.0 382.3,97.0 401.0,111.0 419.7,97.0 419.7,69.0" fill="none"  stroke="#2dd4bf" stroke-width="0.6" stroke-opacity="0.12"/>
  <polygon points="449.5,55.0 430.8,69.0 430.8,97.0 449.5,111.0 468.2,97.0 468.2,69.0" fill="none"  stroke="#2dd4bf" stroke-width="0.6" stroke-opacity="0.12"/>
  <!-- row 2 -->
  <polygon points="37.4,97.0 18.7,111.0 18.7,139.0 37.4,153.0 56.1,139.0 56.1,111.0"   fill="none"    stroke="#2dd4bf" stroke-width="0.6" stroke-opacity="0.12"/>
  <polygon points="85.9,97.0 67.2,111.0 67.2,139.0 85.9,153.0 104.6,139.0 104.6,111.0"  fill="none"    stroke="#2dd4bf" stroke-width="0.6" stroke-opacity="0.12"/>
  <polygon points="134.4,97.0 115.7,111.0 115.7,139.0 134.4,153.0 153.1,139.0 153.1,111.0" fill="none"  stroke="#2dd4bf" stroke-width="0.6" stroke-opacity="0.12"/>
  <polygon points="182.9,97.0 164.2,111.0 164.2,139.0 182.9,153.0 201.6,139.0 201.6,111.0" fill="none"  stroke="#2dd4bf" stroke-width="0.6" stroke-opacity="0.12"/>
  <polygon points="231.4,97.0 212.7,111.0 212.7,139.0 231.4,153.0 250.1,139.0 250.1,111.0" fill="#0a4f4a" stroke="#2dd4bf" stroke-width="0.6" stroke-opacity="0.35"/>
  <polygon points="279.9,97.0 261.2,111.0 261.2,139.0 279.9,153.0 298.6,139.0 298.6,111.0" fill="#0d9488" stroke="#2dd4bf" stroke-width="0.6" stroke-opacity="0.70"/>
  <polygon points="328.4,97.0 309.7,111.0 309.7,139.0 328.4,153.0 347.1,139.0 347.1,111.0" fill="#0a4f4a" stroke="#2dd4bf" stroke-width="0.6" stroke-opacity="0.35"/>
  <polygon points="376.9,97.0 358.2,111.0 358.2,139.0 376.9,153.0 395.6,139.0 395.6,111.0" fill="none"    stroke="#2dd4bf" stroke-width="0.6" stroke-opacity="0.12"/>
  <polygon points="425.4,97.0 406.7,111.0 406.7,139.0 425.4,153.0 444.1,139.0 444.1,111.0" fill="none"    stroke="#2dd4bf" stroke-width="0.6" stroke-opacity="0.12"/>
  <!-- row 3 (offset) -->
  <polygon points="61.5,139.0 42.8,153.0 42.8,181.0 61.5,195.0 80.2,181.0 80.2,153.0"    fill="none"    stroke="#2dd4bf" stroke-width="0.6" stroke-opacity="0.12"/>
  <polygon points="110.0,139.0 91.3,153.0 91.3,181.0 110.0,195.0 128.7,181.0 128.7,153.0"  fill="none"    stroke="#2dd4bf" stroke-width="0.6" stroke-opacity="0.12"/>
  <polygon points="158.5,139.0 139.8,153.0 139.8,181.0 158.5,195.0 177.2,181.0 177.2,153.0" fill="none"   stroke="#2dd4bf" stroke-width="0.6" stroke-opacity="0.12"/>
  <polygon points="207.0,139.0 188.3,153.0 188.3,181.0 207.0,195.0 225.7,181.0 225.7,153.0" fill="none"   stroke="#2dd4bf" stroke-width="0.6" stroke-opacity="0.12"/>
  <polygon points="255.5,139.0 236.8,153.0 236.8,181.0 255.5,195.0 274.2,181.0 274.2,153.0" fill="none"   stroke="#2dd4bf" stroke-width="0.6" stroke-opacity="0.12"/>
  <polygon points="304.0,139.0 285.3,153.0 285.3,181.0 304.0,195.0 322.7,181.0 322.7,153.0" fill="none"   stroke="#2dd4bf" stroke-width="0.6" stroke-opacity="0.12"/>
  <polygon points="352.5,139.0 333.8,153.0 333.8,181.0 352.5,195.0 371.2,181.0 371.2,153.0" fill="none"   stroke="#2dd4bf" stroke-width="0.6" stroke-opacity="0.12"/>
  <polygon points="401.0,139.0 382.3,153.0 382.3,181.0 401.0,195.0 419.7,181.0 419.7,153.0" fill="none"   stroke="#2dd4bf" stroke-width="0.6" stroke-opacity="0.12"/>
  <rect width="480" height="200" fill="url(#h-glow)"/>
  <circle cx="304" cy="83" r="8" fill="#2dd4bf" opacity="0.9" filter="url(#h-blur)"/>
</svg>
